<mxfile host="app.diagrams.net" modified="2021-05-26T06:17:05.800Z" agent="5.0 (Macintosh; Intel Mac OS X 10_15_6) AppleWebKit/537.36 (KHTML, like Gecko) Chrome/90.0.4430.212 Safari/537.36" etag="Q1YzZ4YsGXdJzy_MyJjR" version="14.7.0" type="github">
  <diagram id="C5RBs43oDa-KdzZeNtuy" name="Page-1">
    <mxGraphModel dx="946" dy="623" grid="0" gridSize="10" guides="1" tooltips="1" connect="1" arrows="1" fold="1" page="1" pageScale="1" pageWidth="827" pageHeight="1169" math="0" shadow="0">
      <root>
        <mxCell id="WIyWlLk6GJQsqaUBKTNV-0" />
        <mxCell id="WIyWlLk6GJQsqaUBKTNV-1" parent="WIyWlLk6GJQsqaUBKTNV-0" />
        <mxCell id="xIj-4mbMB0GoUZSMQDyW-3" style="edgeStyle=orthogonalEdgeStyle;rounded=0;orthogonalLoop=1;jettySize=auto;html=1;entryX=0;entryY=0.5;entryDx=0;entryDy=0;dashed=1;" edge="1" parent="WIyWlLk6GJQsqaUBKTNV-1" source="WIyWlLk6GJQsqaUBKTNV-3" target="WIyWlLk6GJQsqaUBKTNV-7">
          <mxGeometry relative="1" as="geometry" />
        </mxCell>
        <mxCell id="xIj-4mbMB0GoUZSMQDyW-4" value="引用包" style="edgeLabel;html=1;align=center;verticalAlign=middle;resizable=0;points=[];" vertex="1" connectable="0" parent="xIj-4mbMB0GoUZSMQDyW-3">
          <mxGeometry x="-0.0667" y="-1" relative="1" as="geometry">
            <mxPoint as="offset" />
          </mxGeometry>
        </mxCell>
        <mxCell id="WIyWlLk6GJQsqaUBKTNV-3" value="Service" style="rounded=1;whiteSpace=wrap;html=1;fontSize=12;glass=0;strokeWidth=1;shadow=0;" parent="WIyWlLk6GJQsqaUBKTNV-1" vertex="1">
          <mxGeometry x="50" y="200" width="100" height="40" as="geometry" />
        </mxCell>
        <mxCell id="xIj-4mbMB0GoUZSMQDyW-7" value="1、连接" style="edgeStyle=orthogonalEdgeStyle;rounded=0;orthogonalLoop=1;jettySize=auto;html=1;entryX=0.5;entryY=0;entryDx=0;entryDy=0;exitX=0.433;exitY=0;exitDx=0;exitDy=0;exitPerimeter=0;dashed=1;dashPattern=1 2;" edge="1" parent="WIyWlLk6GJQsqaUBKTNV-1" source="WIyWlLk6GJQsqaUBKTNV-7" target="WIyWlLk6GJQsqaUBKTNV-11">
          <mxGeometry relative="1" as="geometry">
            <Array as="points">
              <mxPoint x="322" y="160" />
              <mxPoint x="525" y="160" />
            </Array>
          </mxGeometry>
        </mxCell>
        <mxCell id="xIj-4mbMB0GoUZSMQDyW-9" style="edgeStyle=orthogonalEdgeStyle;rounded=0;orthogonalLoop=1;jettySize=auto;html=1;entryX=0.5;entryY=1;entryDx=0;entryDy=0;exitX=0.408;exitY=1.025;exitDx=0;exitDy=0;exitPerimeter=0;endSize=6;" edge="1" parent="WIyWlLk6GJQsqaUBKTNV-1" source="WIyWlLk6GJQsqaUBKTNV-7" target="WIyWlLk6GJQsqaUBKTNV-11">
          <mxGeometry relative="1" as="geometry">
            <mxPoint x="320" y="260" as="sourcePoint" />
            <Array as="points">
              <mxPoint x="320" y="241" />
              <mxPoint x="320" y="290" />
              <mxPoint x="525" y="290" />
            </Array>
          </mxGeometry>
        </mxCell>
        <mxCell id="xIj-4mbMB0GoUZSMQDyW-10" value="2、将API元数据写入" style="edgeLabel;html=1;align=center;verticalAlign=middle;resizable=0;points=[];" vertex="1" connectable="0" parent="xIj-4mbMB0GoUZSMQDyW-9">
          <mxGeometry x="-0.4359" y="1" relative="1" as="geometry">
            <mxPoint x="69" y="-1" as="offset" />
          </mxGeometry>
        </mxCell>
        <mxCell id="WIyWlLk6GJQsqaUBKTNV-7" value="highway-client" style="rounded=1;whiteSpace=wrap;html=1;fontSize=12;glass=0;strokeWidth=1;shadow=0;" parent="WIyWlLk6GJQsqaUBKTNV-1" vertex="1">
          <mxGeometry x="271" y="200" width="120" height="40" as="geometry" />
        </mxCell>
        <mxCell id="WIyWlLk6GJQsqaUBKTNV-11" value="mysql" style="rounded=1;whiteSpace=wrap;html=1;fontSize=12;glass=0;strokeWidth=1;shadow=0;" parent="WIyWlLk6GJQsqaUBKTNV-1" vertex="1">
          <mxGeometry x="480" y="200" width="90" height="40" as="geometry" />
        </mxCell>
        <mxCell id="xIj-4mbMB0GoUZSMQDyW-11" style="edgeStyle=orthogonalEdgeStyle;rounded=0;orthogonalLoop=1;jettySize=auto;html=1;entryX=0;entryY=0.5;entryDx=0;entryDy=0;dashed=1;" edge="1" parent="WIyWlLk6GJQsqaUBKTNV-1" source="xIj-4mbMB0GoUZSMQDyW-13" target="xIj-4mbMB0GoUZSMQDyW-18">
          <mxGeometry relative="1" as="geometry" />
        </mxCell>
        <mxCell id="xIj-4mbMB0GoUZSMQDyW-12" value="引用包" style="edgeLabel;html=1;align=center;verticalAlign=middle;resizable=0;points=[];" vertex="1" connectable="0" parent="xIj-4mbMB0GoUZSMQDyW-11">
          <mxGeometry x="-0.0667" y="-1" relative="1" as="geometry">
            <mxPoint as="offset" />
          </mxGeometry>
        </mxCell>
        <mxCell id="xIj-4mbMB0GoUZSMQDyW-13" value="Service" style="rounded=1;whiteSpace=wrap;html=1;fontSize=12;glass=0;strokeWidth=1;shadow=0;" vertex="1" parent="WIyWlLk6GJQsqaUBKTNV-1">
          <mxGeometry x="58" y="444" width="100" height="40" as="geometry" />
        </mxCell>
        <mxCell id="xIj-4mbMB0GoUZSMQDyW-14" style="edgeStyle=orthogonalEdgeStyle;rounded=0;orthogonalLoop=1;jettySize=auto;html=1;entryX=0.5;entryY=0;entryDx=0;entryDy=0;exitX=0.5;exitY=0;exitDx=0;exitDy=0;dashed=1;dashPattern=1 2;" edge="1" parent="WIyWlLk6GJQsqaUBKTNV-1" source="xIj-4mbMB0GoUZSMQDyW-20" target="xIj-4mbMB0GoUZSMQDyW-19">
          <mxGeometry relative="1" as="geometry">
            <Array as="points">
              <mxPoint x="507" y="409" />
              <mxPoint x="723" y="409" />
            </Array>
          </mxGeometry>
        </mxCell>
        <mxCell id="xIj-4mbMB0GoUZSMQDyW-15" value="1、连接" style="edgeLabel;html=1;align=center;verticalAlign=middle;resizable=0;points=[];" vertex="1" connectable="0" parent="xIj-4mbMB0GoUZSMQDyW-14">
          <mxGeometry x="0.1523" y="3" relative="1" as="geometry">
            <mxPoint x="-15" as="offset" />
          </mxGeometry>
        </mxCell>
        <mxCell id="xIj-4mbMB0GoUZSMQDyW-16" style="edgeStyle=orthogonalEdgeStyle;rounded=0;orthogonalLoop=1;jettySize=auto;html=1;entryX=0.5;entryY=1;entryDx=0;entryDy=0;exitX=0.5;exitY=1;exitDx=0;exitDy=0;endSize=6;" edge="1" parent="WIyWlLk6GJQsqaUBKTNV-1" source="xIj-4mbMB0GoUZSMQDyW-20" target="xIj-4mbMB0GoUZSMQDyW-19">
          <mxGeometry relative="1" as="geometry">
            <mxPoint x="324" y="314" as="sourcePoint" />
            <Array as="points">
              <mxPoint x="507" y="523" />
              <mxPoint x="723" y="523" />
            </Array>
          </mxGeometry>
        </mxCell>
        <mxCell id="xIj-4mbMB0GoUZSMQDyW-17" value="2、将API元数据写入" style="edgeLabel;html=1;align=center;verticalAlign=middle;resizable=0;points=[];rotation=0;" vertex="1" connectable="0" parent="xIj-4mbMB0GoUZSMQDyW-16">
          <mxGeometry x="-0.4359" y="1" relative="1" as="geometry">
            <mxPoint x="67" as="offset" />
          </mxGeometry>
        </mxCell>
        <mxCell id="xIj-4mbMB0GoUZSMQDyW-21" style="edgeStyle=orthogonalEdgeStyle;rounded=0;orthogonalLoop=1;jettySize=auto;html=1;exitX=1;exitY=0.5;exitDx=0;exitDy=0;entryX=0;entryY=0.5;entryDx=0;entryDy=0;endSize=6;" edge="1" parent="WIyWlLk6GJQsqaUBKTNV-1" source="xIj-4mbMB0GoUZSMQDyW-18" target="xIj-4mbMB0GoUZSMQDyW-20">
          <mxGeometry relative="1" as="geometry" />
        </mxCell>
        <mxCell id="xIj-4mbMB0GoUZSMQDyW-22" value="调用接口&lt;br&gt;传参数" style="edgeLabel;html=1;align=center;verticalAlign=middle;resizable=0;points=[];" vertex="1" connectable="0" parent="xIj-4mbMB0GoUZSMQDyW-21">
          <mxGeometry y="-1" relative="1" as="geometry">
            <mxPoint as="offset" />
          </mxGeometry>
        </mxCell>
        <mxCell id="xIj-4mbMB0GoUZSMQDyW-18" value="highway-client" style="rounded=1;whiteSpace=wrap;html=1;fontSize=12;glass=0;strokeWidth=1;shadow=0;" vertex="1" parent="WIyWlLk6GJQsqaUBKTNV-1">
          <mxGeometry x="241" y="444" width="120" height="40" as="geometry" />
        </mxCell>
        <mxCell id="xIj-4mbMB0GoUZSMQDyW-19" value="mysql" style="rounded=1;whiteSpace=wrap;html=1;fontSize=12;glass=0;strokeWidth=1;shadow=0;" vertex="1" parent="WIyWlLk6GJQsqaUBKTNV-1">
          <mxGeometry x="678" y="444" width="90" height="40" as="geometry" />
        </mxCell>
        <mxCell id="xIj-4mbMB0GoUZSMQDyW-20" value="zoro接口" style="rounded=1;whiteSpace=wrap;html=1;fontSize=12;glass=0;strokeWidth=1;shadow=0;" vertex="1" parent="WIyWlLk6GJQsqaUBKTNV-1">
          <mxGeometry x="462" y="444" width="90" height="40" as="geometry" />
        </mxCell>
      </root>
    </mxGraphModel>
  </diagram>
</mxfile>
